<?xml version="1.0" encoding="utf-8"?>
<!-- Generator: Adobe Illustrator 21.1.0, SVG Export Plug-In . SVG Version: 6.00 Build 0)  -->
<svg version="1.1" id="Icons" xmlns="http://www.w3.org/2000/svg" xmlns:xlink="http://www.w3.org/1999/xlink" x="0px" y="0px"
	 viewBox="0 0 48 48" style="enable-background:new 0 0 48 48;" xml:space="preserve">
<style type="text/css">
	.st0{fill:#FFE500;}
	.st1{fill:#FFA694;}
	.st2{fill:#FFF48C;}
	.st3{fill:none;stroke:#45413C;stroke-linecap:round;stroke-linejoin:round;stroke-miterlimit:10;}
	.st4{fill:#FF866E;}
	.st5{opacity:0.15;fill:#45413C;}
	.st6{fill:none;stroke:#45413C;stroke-linecap:round;stroke-miterlimit:10;}
	.st7{fill:#FF6242;}
	.st8{fill:#FFB0CA;stroke:#45413C;stroke-linecap:round;stroke-linejoin:round;stroke-miterlimit:10;}
	.st9{fill:#FF866E;stroke:#45413C;stroke-linecap:round;stroke-linejoin:round;stroke-miterlimit:10;}
	.st10{fill:#FFFFFF;stroke:#45413C;stroke-linecap:round;stroke-linejoin:round;stroke-miterlimit:10;}
	.st11{fill:#FFE500;stroke:#45413C;stroke-linecap:round;stroke-linejoin:round;stroke-miterlimit:10;}
	.st12{fill:#45413C;stroke:#45413C;stroke-linecap:round;stroke-linejoin:round;stroke-miterlimit:10;}
	.st13{fill:#00B8F0;}
	.st14{fill:#4ACFFF;}
	.st15{fill:#B89558;stroke:#45413C;stroke-linecap:round;stroke-linejoin:round;stroke-miterlimit:10;}
	.st16{fill:#B89558;}
	.st17{fill:#F7E5C6;}
	.st18{fill:#DEBB7E;}
	.st19{fill:#947746;stroke:#45413C;stroke-miterlimit:10;}
	.st20{fill:#FF866E;stroke:#45413C;stroke-miterlimit:10;}
	.st21{fill:#FFF5E3;stroke:#45413C;stroke-linecap:round;stroke-linejoin:round;stroke-miterlimit:10;}
	.st22{fill:#DEBB7E;stroke:#45413C;stroke-linecap:round;stroke-linejoin:round;stroke-miterlimit:10;}
	.st23{fill:#B89558;stroke:#45413C;stroke-miterlimit:10;}
	.st24{fill:#FFAA54;}
	.st25{fill:#724F3D;}
	.st26{fill:#A86C4D;}
	.st27{fill:#FFDA8F;}
	.st28{fill:#FFE9BD;}
	.st29{fill:#FFBE3D;}
	.st30{fill:#614B44;}
	.st31{fill:#947063;}
	.st32{fill:#D18660;}
	.st33{fill:#E09F7E;}
	.st34{fill:#BD704A;}
	.st35{fill:#FFDA8F;stroke:#45413C;stroke-linecap:round;stroke-linejoin:round;stroke-miterlimit:10;}
	.st36{fill:#D18660;stroke:#45413C;stroke-miterlimit:10;}
	.st37{fill:#DE926A;}
	.st38{fill:#FFCEBF;stroke:#45413C;stroke-linecap:round;stroke-linejoin:round;stroke-miterlimit:10;}
	.st39{fill:#FFB59E;}
	.st40{fill:#E0E0E0;}
	.st41{fill:#FFFFFF;}
	.st42{fill:#FFCEBF;}
	.st43{fill:#FFDCD1;}
	.st44{fill:#F0F0F0;stroke:#45413C;stroke-linecap:round;stroke-linejoin:round;stroke-miterlimit:10;}
	.st45{fill:#00DFEB;stroke:#45413C;stroke-linecap:round;stroke-linejoin:round;stroke-miterlimit:10;}
	.st46{fill:#EBCB00;}
	.st47{fill:#87898C;stroke:#45413C;stroke-linecap:round;stroke-linejoin:round;stroke-miterlimit:10;}
	.st48{fill:#C0DCEB;stroke:#45413C;stroke-linecap:round;stroke-linejoin:round;stroke-miterlimit:10;}
	.st49{fill:#E8F4FA;}
	.st50{fill:#80DDFF;}
	.st51{fill:#FF6196;}
	.st52{fill:#FF6196;stroke:#45413C;stroke-linecap:round;stroke-linejoin:round;stroke-miterlimit:10;}
	.st53{fill:#724F3D;stroke:#45413C;stroke-linecap:round;stroke-linejoin:round;stroke-miterlimit:10;}
	.st54{fill:#656769;stroke:#45413C;stroke-linecap:round;stroke-linejoin:round;stroke-miterlimit:10;}
	.st55{fill:#DAEDF7;stroke:#45413C;stroke-linecap:round;stroke-linejoin:round;stroke-miterlimit:10;}
	.st56{fill:#F0D5A8;}
	.st57{fill:#DAEDF7;}
	.st58{fill:#A86C4D;stroke:#45413C;stroke-linecap:round;stroke-linejoin:round;stroke-miterlimit:10;}
	.st59{fill:#FF6242;stroke:#45413C;stroke-linecap:round;stroke-linejoin:round;stroke-miterlimit:10;}
	.st60{fill:#009FD9;stroke:#45413C;stroke-linecap:round;stroke-linejoin:round;stroke-miterlimit:10;}
	.st61{fill:#656769;}
	.st62{fill:#525252;}
	.st63{fill:#525252;stroke:#45413C;stroke-linecap:round;stroke-linejoin:round;stroke-miterlimit:10;}
	.st64{fill:#6DD627;}
	.st65{fill:#009FD9;}
	.st66{fill:#ADC4D9;}
	.st67{fill:#C0DCEB;}
	.st68{fill:#FF8A14;}
	.st69{fill:#EB6D00;}
	.st70{fill:#00DBA8;stroke:#45413C;stroke-linecap:round;stroke-linejoin:round;stroke-miterlimit:10;}
	.st71{fill:#B8ECFF;}
	.st72{fill:#FF87AF;}
	.st73{fill:#80DDFF;stroke:#45413C;stroke-linecap:round;stroke-linejoin:round;stroke-miterlimit:10;}
	.st74{fill:#00DBA8;}
	.st75{fill:#00F5BC;}
	.st76{fill:#E5FEFF;stroke:#45413C;stroke-linecap:round;stroke-linejoin:round;stroke-miterlimit:10;}
	.st77{fill:#46B000;}
	.st78{fill:#46B000;stroke:#45413C;stroke-linecap:round;stroke-linejoin:round;stroke-miterlimit:10;}
	.st79{fill:#BF8256;stroke:#45413C;stroke-linecap:round;stroke-linejoin:round;stroke-miterlimit:10;}
	.st80{fill:#ADC4D9;stroke:#45413C;stroke-linecap:round;stroke-linejoin:round;stroke-miterlimit:10;}
	.st81{fill:#BDBEC0;}
	.st82{fill:#F0F0F0;}
	.st83{fill:#FFB59E;stroke:#45413C;stroke-linecap:round;stroke-linejoin:round;stroke-miterlimit:10;}
	.st84{fill:#45413C;}
	.st85{fill:#E04122;}
	.st86{fill:none;stroke:#48CF3E;stroke-linecap:round;stroke-linejoin:round;stroke-miterlimit:10;}
	.st87{fill:none;stroke:#FF4064;stroke-linecap:round;stroke-linejoin:round;stroke-miterlimit:10;}
	.st88{fill:none;stroke:#FFB700;stroke-linecap:round;stroke-linejoin:round;stroke-miterlimit:10;}
	.st89{fill:#BF8DF2;}
	.st90{fill:#9F5AE5;}
	.st91{fill:#00AD85;}
	.st92{fill:#8CA4B8;}
	.st93{fill:#627B8C;}
	.st94{fill:#627B8C;stroke:#45413C;stroke-linecap:round;stroke-linejoin:round;stroke-miterlimit:10;}
	.st95{fill:#87898C;}
	.st96{fill:#FF8A14;stroke:#45413C;stroke-linecap:round;stroke-linejoin:round;stroke-miterlimit:10;}
	.st97{fill:#E04122;stroke:#45413C;stroke-linecap:round;stroke-linejoin:round;stroke-miterlimit:10;}
	.st98{fill:#EBCB00;stroke:#45413C;stroke-linecap:round;stroke-linejoin:round;stroke-miterlimit:10;}
	.st99{fill:#6DD627;stroke:#45413C;stroke-linecap:round;stroke-linejoin:round;stroke-miterlimit:10;}
	.st100{fill:#FFB0CA;}
	.st101{fill:#FFB59E;stroke:#FFAA54;stroke-miterlimit:10;}
	.st102{fill:#FF87AF;stroke:#45413C;stroke-linecap:round;stroke-linejoin:round;stroke-miterlimit:10;}
</style>
<g>
	<ellipse id="XMLID_3909_" class="st5" cx="24" cy="45.5" rx="15" ry="1.5"/>
	<g id="XMLID_4723_">
		<path id="XMLID_4739_" class="st63" d="M41.3,29.2H6.7c-1.1,0-2-0.9-2-2V6c0-1.1,0.9-2,2-2h34.7c1.1,0,2,0.9,2,2v21.2
			C43.3,28.3,42.4,29.2,41.3,29.2z"/>
		<path id="XMLID_4738_" class="st64" d="M15.8,9.3H8.1C7.8,9.3,7.6,9,7.6,8.8V7.1c0-0.3,0.2-0.5,0.5-0.5h7.7c0.3,0,0.5,0.2,0.5,0.5
			v1.7C16.3,9,16.1,9.3,15.8,9.3z"/>
		<path id="XMLID_4737_" class="st64" d="M34.5,9.3H18.1c-0.3,0-0.5-0.2-0.5-0.5V7.1c0-0.3,0.2-0.5,0.5-0.5h16.4
			c0.3,0,0.5,0.2,0.5,0.5v1.7C35,9,34.8,9.3,34.5,9.3z"/>
		<path id="XMLID_4736_" class="st64" d="M39.9,9.3h-3.4C36.2,9.3,36,9,36,8.8V7.1c0-0.3,0.2-0.5,0.5-0.5h3.4c0.3,0,0.5,0.2,0.5,0.5
			v1.7C40.4,9,40.2,9.3,39.9,9.3z"/>
		<path id="XMLID_4735_" class="st64" d="M9.2,13.6H8.1c-0.3,0-0.5-0.2-0.5-0.5v-1.7c0-0.3,0.2-0.5,0.5-0.5h1.1
			c0.3,0,0.5,0.2,0.5,0.5v1.7C9.7,13.4,9.4,13.6,9.2,13.6z"/>
		<path id="XMLID_4734_" class="st64" d="M19.6,13.6h-8c-0.3,0-0.5-0.2-0.5-0.5v-1.7c0-0.3,0.2-0.5,0.5-0.5h8c0.3,0,0.5,0.2,0.5,0.5
			v1.7C20.1,13.4,19.9,13.6,19.6,13.6z"/>
		<path id="XMLID_4733_" class="st64" d="M25.5,13.6H22c-0.3,0-0.5-0.2-0.5-0.5v-1.7c0-0.3,0.2-0.5,0.5-0.5h3.5
			c0.3,0,0.5,0.2,0.5,0.5v1.7C26,13.4,25.8,13.6,25.5,13.6z"/>
		<path id="XMLID_4732_" class="st64" d="M39.9,13.6H27.7c-0.3,0-0.5-0.2-0.5-0.5v-1.7c0-0.3,0.2-0.5,0.5-0.5h12.3
			c0.3,0,0.5,0.2,0.5,0.5v1.7C40.4,13.4,40.2,13.6,39.9,13.6z"/>
		<path id="XMLID_4731_" class="st64" d="M17,17.9H7.9c-0.3,0-0.5-0.2-0.5-0.5v-1.7c0-0.3,0.2-0.5,0.5-0.5H17c0.3,0,0.5,0.2,0.5,0.5
			v1.7C17.5,17.7,17.2,17.9,17,17.9z"/>
		<path id="XMLID_4730_" class="st64" d="M39.9,17.9H19.1c-0.3,0-0.5-0.2-0.5-0.5v-1.7c0-0.3,0.2-0.5,0.5-0.5h20.9
			c0.3,0,0.5,0.2,0.5,0.5v1.7C40.4,17.7,40.2,17.9,39.9,17.9z"/>
		<path id="XMLID_4729_" class="st64" d="M13.7,22.3H7.9c-0.3,0-0.5-0.2-0.5-0.5v-1.7c0-0.3,0.2-0.5,0.5-0.5h5.8
			c0.3,0,0.5,0.2,0.5,0.5v1.7C14.2,22.1,14,22.3,13.7,22.3z"/>
		<path id="XMLID_4728_" class="st64" d="M30.4,22.3H16.2c-0.3,0-0.5-0.2-0.5-0.5v-1.7c0-0.3,0.2-0.5,0.5-0.5h14.3
			c0.3,0,0.5,0.2,0.5,0.5v1.7C30.9,22.1,30.7,22.3,30.4,22.3z"/>
		<path id="XMLID_4727_" class="st64" d="M34.3,22.3h-1.6c-0.3,0-0.5-0.2-0.5-0.5v-1.7c0-0.3,0.2-0.5,0.5-0.5h1.6
			c0.3,0,0.5,0.2,0.5,0.5v1.7C34.8,22.1,34.6,22.3,34.3,22.3z"/>
		<path id="XMLID_4726_" class="st64" d="M39.9,22.3h-3.4c-0.3,0-0.5-0.2-0.5-0.5v-1.7c0-0.3,0.2-0.5,0.5-0.5h3.4
			c0.3,0,0.5,0.2,0.5,0.5v1.7C40.4,22.1,40.2,22.3,39.9,22.3z"/>
		<path id="XMLID_4725_" class="st64" d="M31.7,26.6H7.9c-0.3,0-0.5-0.2-0.5-0.5v-1.7c0-0.3,0.2-0.5,0.5-0.5h23.8
			c0.3,0,0.5,0.2,0.5,0.5v1.7C32.2,26.4,32,26.6,31.7,26.6z"/>
		<path id="XMLID_4724_" class="st64" d="M39.9,26.6H34c-0.3,0-0.5-0.2-0.5-0.5v-1.7c0-0.3,0.2-0.5,0.5-0.5h5.9
			c0.3,0,0.5,0.2,0.5,0.5v1.7C40.4,26.4,40.2,26.6,39.9,26.6z"/>
	</g>
	<path id="XMLID_4465_" class="st13" d="M35.9,45H12.1v-1.9c0-6.6,5.3-11.9,11.9-11.9h0c6.6,0,11.9,5.3,11.9,11.9V45z"/>
	<path id="XMLID_4464_" class="st65" d="M24,31.2L24,31.2c-6.6,0-11.9,5.3-11.9,11.9V45h0.1C13.1,39.2,18,34.8,24,34.8h0
		c6,0,10.9,4.4,11.7,10.2h0.1v-1.9C35.9,36.5,30.6,31.2,24,31.2z"/>
	<path id="XMLID_2414_" class="st3" d="M35.9,45H12.1v-1.9c0-6.6,5.3-11.9,11.9-11.9h0c6.6,0,11.9,5.3,11.9,11.9V45z"/>
	<path id="XMLID_2413_" class="st0" d="M24,35.1L24,35.1c-1.4,0-2.5-1.1-2.5-2.5v-2.8c0-1.4,1.1-2.5,2.5-2.5h0
		c1.4,0,2.5,1.1,2.5,2.5v2.8C26.5,34,25.4,35.1,24,35.1z"/>
	<path id="XMLID_2412_" class="st46" d="M24,27.2c-1.4,0-2.5,1.1-2.5,2.5v0.6c0,1.4,1.1,2.5,2.5,2.5c1.4,0,2.5-1.1,2.5-2.5v-0.6
		C26.5,28.3,25.4,27.2,24,27.2z"/>
	<path id="XMLID_2411_" class="st3" d="M24,35.1L24,35.1c-1.4,0-2.5-1.1-2.5-2.5v-2.8c0-1.4,1.1-2.5,2.5-2.5h0
		c1.4,0,2.5,1.1,2.5,2.5v2.8C26.5,34,25.4,35.1,24,35.1z"/>
	<line id="XMLID_2410_" class="st3" x1="17.1" y1="45" x2="17.1" y2="42.6"/>
	<line id="XMLID_2409_" class="st3" x1="30.9" y1="45" x2="30.9" y2="42.6"/>
	<g>
		<path id="XMLID_2408_" class="st25" d="M24,6.9c-0.8,0-1.7,0.1-2.4,0.3c-1.9,0.4-4.3,1.1-6.5,0.7c-0.2,2.1,0.8,3.2,0.8,3.2
			c-1.1,1.6-1.8,3.5-1.8,5.6v5.1h19.6v-5.1C33.8,11.3,29.4,6.9,24,6.9z"/>
		<g id="XMLID_2406_">
			<path id="XMLID_2407_" class="st26" d="M24,6.9c-0.8,0-1.7,0.1-2.4,0.3c-1.9,0.4-4.3,1.1-6.5,0.7c-0.2,1.6,0.4,2.6,0.7,3
				c2,0.2,4.1-0.4,5.8-0.8c0.8-0.2,1.6-0.3,2.4-0.3c5.4,0,9.8,4.4,9.8,9.8v-2.9C33.8,11.3,29.4,6.9,24,6.9z"/>
		</g>
		<path id="XMLID_2405_" class="st3" d="M24,6.9c-0.8,0-1.7,0.1-2.4,0.3c-1.9,0.4-4.3,1.1-6.5,0.7c-0.2,2.1,0.8,3.2,0.8,3.2
			c-1.1,1.6-1.8,3.5-1.8,5.6v5.1h19.6v-5.1C33.8,11.3,29.4,6.9,24,6.9z"/>
		<path class="st11" d="M34.9,21.1c-0.1-0.7-0.7-1.3-1.4-1.5l-0.6-0.2c-0.9-0.2-1.5-1.1-1.5-2v-2.1c0-0.9-0.6-1.6-1.4-1.8
			c-1.6,0.7-3.7,1.1-6,1.1s-4.4-0.4-6-1.1c-0.8,0.2-1.4,0.9-1.4,1.8v2.1c0,0.9-0.6,1.7-1.5,2l-0.6,0.2c-0.7,0.2-1.3,0.8-1.4,1.5
			c-0.1,1.1,0.8,2,1.8,2c0,0,0.1,0,0.1,0c0.7,4.4,4.4,7.7,9,7.7s8.3-3.4,9-7.7c0,0,0.1,0,0.1,0C34.1,23.1,35,22.2,34.9,21.1z"/>
		<circle id="XMLID_2404_" class="st12" cx="19.3" cy="20.9" r="0.8"/>
		<circle id="XMLID_2403_" class="st12" cx="28.7" cy="20.9" r="0.8"/>
		<g id="XMLID_2365_">
			<g id="XMLID_2366_">
				<g id="XMLID_2367_">
					<g id="XMLID_2368_">
						<g id="XMLID_2370_">
							<g id="XMLID_2383_">
								<g id="XMLID_2399_">
									<path id="XMLID_2402_" class="st7" d="M21.2,25.6c-0.1,0-0.3,0.1-0.3,0.2c-0.1,0.1-0.1,0.2-0.1,0.4
										c0.2,1.6,1.6,2.8,3.3,2.8c1.7,0,3-1.2,3.3-2.8c0-0.1,0-0.3-0.1-0.4c-0.1-0.1-0.2-0.2-0.3-0.2H21.2z"/>
									<path id="XMLID_2400_" class="st1" d="M24,27c-1,0-1.9,0.3-2.5,0.8c0.6,0.7,1.5,1.1,2.5,1.1s1.9-0.4,2.5-1.1
										C25.9,27.3,25,27,24,27z"/>
								</g>
							</g>
						</g>
					</g>
				</g>
			</g>
		</g>
		<g id="XMLID_2363_">
			<path id="XMLID_2364_" class="st3" d="M21.2,25.6c-0.1,0-0.3,0.1-0.3,0.2c-0.1,0.1-0.1,0.2-0.1,0.4c0.2,1.6,1.6,2.8,3.3,2.8
				c1.7,0,3-1.2,3.3-2.8c0-0.1,0-0.3-0.1-0.4c-0.1-0.1-0.2-0.2-0.3-0.2H21.2z"/>
		</g>
		<ellipse id="XMLID_2362_" class="st24" cx="18.1" cy="24.2" rx="1" ry="0.6"/>
		<ellipse id="XMLID_2361_" class="st24" cx="29.9" cy="24.2" rx="1" ry="0.6"/>
	</g>
	<path id="XMLID_2360_" class="st66" d="M32.5,45h-17c-0.4,0-0.7-0.3-0.8-0.6l-1.2-9.9c-0.1-0.4,0.3-0.8,0.8-0.8h19.4
		c0.5,0,0.8,0.4,0.8,0.8l-1.2,9.9C33.2,44.7,32.9,45,32.5,45z"/>
	<path id="XMLID_2359_" class="st67" d="M14.3,36.9h19.4c0.2,0,0.3,0.1,0.5,0.1l0.3-2.6c0.1-0.4-0.3-0.8-0.8-0.8H14.3
		c-0.5,0-0.8,0.4-0.8,0.8l0.3,2.6C14,37,14.1,36.9,14.3,36.9z"/>
	<path id="XMLID_2358_" class="st3" d="M32.5,45h-17c-0.4,0-0.7-0.3-0.8-0.6l-1.2-9.9c-0.1-0.4,0.3-0.8,0.8-0.8h19.4
		c0.5,0,0.8,0.4,0.8,0.8l-1.2,9.9C33.2,44.7,32.9,45,32.5,45z"/>
	<path id="XMLID_2357_" class="st41" d="M25.2,39.4c0-0.4,0.1-0.7,0.2-0.8c-0.1-0.1-0.2-0.2-0.4-0.2c-0.3-0.1-0.7-0.1-1,0.3
		c-0.3-0.4-0.6-0.4-1-0.3c-0.5,0.1-0.8,0.8-0.6,1.6c0.2,0.8,0.7,1.3,1.2,1.2c0.1,0,0.2-0.1,0.3-0.1c0.1,0.1,0.2,0.1,0.3,0.1
		c0.4,0.1,0.8-0.3,1.1-0.8C25.3,40.1,25.2,39.8,25.2,39.4z"/>
	<path id="XMLID_2356_" class="st41" d="M24.4,37.5c-0.2,0.2-0.2,0.4-0.2,0.6c0.2,0,0.4-0.1,0.6-0.3c0.2-0.2,0.2-0.4,0.2-0.6
		C24.8,37.2,24.6,37.3,24.4,37.5z"/>
</g>
</svg>
